/* XPM */
static char *result[] = {
/* columns rows colors chars-per-pixel */
"32 32 8 1 ",
"  c #8B74A1",
". c #8A75A1",
"X c #8B75A1",
"o c #8B76A1",
"O c #8B75A2",
"+ c #8B76A2",
"@ c #8C75A1",
"# c None",
/* pixels */
"################################",
"################################",
"OXXX####OXXX####################",
"#XXXX####XXXX###################",
"# XXX#### XXX###################",
"##XXXX####XXXX##################",
"###XXX.####XXX.#################",
"###@XXX####@XXX#################",
"####XXX+####XXX+################",
"####OXXX####OXXX################",
"#####XXXX####XXXX#### XXXXXXXXXX",
"##### XXX#### XXX#####XXXXXXXXXX",
"######XXXX####XXXX#####XXXXXXXXX",
"#######XXX.####XXX.####oXXXXXXXX",
"#######@XXX####@XXX#############",
"########XXX+####XXX+############",
"########XXXX####XXXX############",
"#######XXXX####XXXXXX###########",
"#######XXX@####XXXXXX#####XXXXXX",
"######XXXX####XXXXXXXX#####XXXXX",
"#####+XXX####+XXX##XXX.####oXXXX",
"#####XXXX####XXXX##@XXX#####XXXX",
"####XXXX####XXXX####XXX+########",
"####XXXX####XXXX####OXXX########",
"###XXXX####XXXX######XXXX#######",
"###XXX@####XXX@###### XXX#######",
"##XXXX####XXXX########XXXX######",
"#+XXX####+XXX##########XXX.#####",
"#XXXX####XXXX##########@XXX#####",
"XXXX####XXXX############XXX+####",
"################################",
"################################"
};
