/* XPM */
static char *result[] = {
/* columns rows colors chars-per-pixel */
"128 128 45 1 ",
"  c #1B3173",
". c #1B3273",
"X c #1A3373",
"o c #1C3173",
"O c #1C3273",
"+ c #1A3174",
"@ c #1B3174",
"# c #1A3175",
"$ c #1B3175",
"% c #1A3274",
"& c #1B3274",
"* c #1B3374",
"= c #1B3275",
"- c #1B3375",
"; c #1C3174",
": c #1D3174",
"> c #1C3175",
", c #1C3274",
"< c #1C3374",
"1 c #1C3275",
"2 c #1C3375",
"3 c #312F69",
"4 c #302F6A",
"5 c #2E306B",
"6 c #2D306C",
"7 c #2C316C",
"8 c #7E2747",
"9 c #75274B",
"0 c #792648",
"q c #78274A",
"w c #7C2748",
"e c #DB1A1A",
"r c #DA1B1B",
"t c #DB1B1B",
"y c #DC1A1A",
"u c #DC1B1B",
"i c #DA1C1C",
"p c #DB1C1C",
"a c #DC1C1C",
"s c #C11E27",
"d c #C31E26",
"f c #C61E25",
"g c #C41D26",
"h c #812645",
"j c None",
/* pixels */
"jjjjjjjjjjjjjjjjjjjjjjjjjjjjjjjjjjjjjjjjjjjjjjjjjjjjjjjjjjjjjjjjjjjjjjjjjjjjjjjjjjjjjjjjjjjjjjjjjjjjjjjjjjjjjjjjjjjjjjjjjjjjjjjj",
"jjjjjjjjjjjjjjjjjjjjjjjjjjjjjjjjjjjjjjjjjjjjjjjjjjjjjjjjjjjjjjjjjjjjjjjjjjjjjjjjjjjjjjjjjjjjjjjjjjjjjjjjjjjjjjjjjjjjjjjjjjjjjjjj",
"jjjjjjjjjjjjjjjjjjjjjjjjjjjjjjjjjjjjjjjjjjjjjjjjjjjjjjjjjjjjjjjjjjjjjjjjjjjjjjjjjjjjjjjjjjjjjjjjjjjjjjjjjjjjjjjjjjjjjjjjjjjjjjjj",
"jjjjjjjjjjjjjjjjjjjjjjjjjjjjjjjjjjjjjjjjjjjjjjjjjjjjjjjjjjjjjjjjjjjjjjjjjjjjjjjjjjjjjjjjjjjjjjjjjjjjjjjjjjjjjjjjjjjjjjjjjjjjjjjj",
"jjjjjjjjjjjjjjjjjjjjjjjjjjjjjjjjjjjjjjjjjjjjjjjjjjjjjjjjjjjjjjjjjjjjjjjjjjjjjjjjjjjjjjjjjjjjjjjjjjjjjjjjjjjjjjjjjjjjjjjjjjjjjjjj",
"jjjjjjjjjjjjjjjjjjjjjjjjjjjjjjjjjjjjjjjjjjjjjjjjjjjjjjjjjjjjjjjjjjjjjjjjjjjjjjjjjjjjjjjjjjjjjjjjjjjjjjjjjjjjjjjjjjjjjjjjjjjjjjjj",
"jjjjjjjjjjjjjjjjjjjjjjjjjjjjjjjjjjjjjjjjjjjjjjjjjjjjjjjjjjjjjjjjjjjjjjjjjjjjjjjjjjjjjjjjjjjjjjjjjjjjjjjjjjjjjjjjjjjjjjjjjjjjjjjj",
"jjjjjjjjjjjjjjjjjjjjjjjjjjjjjjjjjjjjjjjjjjjjjjjjjjjjjjjjjjjjjjjjjjjjjjjjjjjjjjjjjjjjjjjjjjjjjjjjjjjjjjjjjjjjjjjjjjjjjjjjjjjjjjjj",
"jjjjjjjjjjjjjjjjjjjjjjjjjjjjjjjjjjjjjjjjjjjjjjjjjjjjjjjjjjjjjjjjjjjjjjjjjjjjjjjjjjjjjjjjjjjjjjjjjjjjjjjjjjjjjjjjjjjjjjjjjjjjjjjj",
"jjjjjjjjjjjjjjjjjjjjjjjjjjjjjjjjjjjjjjjjjjjjjjjjjjjjjjjjjjjjjjjjjjjjjjjjjjjjjjjjjjjjjjjjjjjjjjjjjjjjjjjjjjjjjjjjjjjjjjjjjjjjjjjj",
"jjjjjjjjjjjjjjjjjjjjjjjjjjjjjjjjjjjjjjjjjjjjjjjjjjjjjjjjjjjjjjjjjjjjjjjjjjjjjjjjjjjjjjjjjjjjjjjjjjjjjjjjjjjjjjjjjjjjjjjjjjjjjjjj",
"jjjjjjjjjjjjjjjjjjjjjjjjjjjjjjjjjjjjjjjjjjjjjjjjjjjjjjjjjjjjjjjjjjjjjjjjjjjjjjjjjjjjjjjjjjjjjjjjjjjjjjjjjjjjjjjjjjjjjjjjjjjjjjjj",
"jjjjjjjjjjjjjjjjjjjjjjjjjjjjjjjjjjjjjjjjjjjjjjjjjjjjjjjjjjjjjjjjjjjjjjjjjjjjjjjjjjjjjjjjjjjjjjjjjjjjjjjjjjjjjjjjjjjjjjjjjjjjjjjj",
"jjjjjjjjjjjjjjjjjjjjjjjjjjjjjjjjjjjjjjjjjjjjjjjjjjjjjjjjjjjjjjjjjjjjjjjjjjjjjjjjjjjjjjjjjjjjjjjjjjjjjjjjjjjjjjjjjjjjjjjjjjjjjjjj",
"jjjjjjjjjjjjjjjjjjjjjjjjjjjjjjjjjjjjjjjjjjjjjjjjjjjjjjjjjjjjjjjjjjjjjjjjjjjjjjjjjjjjjjjjjjjjjjjjjjjjjjjjjjjjjjjjjjjjjjjjjjjjjjjj",
"jjjjjjjjjjjjjjjjjjjjjjjjjjjjjjjjjjjjjjjjjjjjjjjjjjjjjjjjjjjjjjjjjjjjjjjjjjjjjjjjjjjjjjjjjjjjjjjjjjjjjjjjjjjjjjjjjjjjjjjjjjjjjjjj",
"jjjjjjjjjjjjjjjjjjjjjjjjjjjjjjjjjjjjjjjjjjjjjjjjjjjjjjjjjjjjjjjjjjjjjjjjjjjjjjjjjjjjjjjjjjjjjjjjjjjjjjjjjjjjjjjjjjjjjjjjjjjjjjjj",
"jjjjjjjjjjjjjjjjjjjjjjjjjjjjjjjjjjjjjjjjjjjjjjjjjjjjjjjjjjjjjjjjjjjjjjjjjjjjjjjjjjjjjjjjjjjjjjjjjjjjjjjjjjjjjjjjjjjjjjjjjjjjjjjj",
"*&&&&&&&&&&&&&&&&&&&&&&jjjjjjjj&&&&&&&&&&&&&&&&&&&&&&jjjjjjjjjjjjjjjjjjjjjjjjjjjjjjjjjjjjjjjjjjjjjjjjjjjjjjjjjjjjjjjjjjjjjjjjjjj",
"j&&&&&&&&&&&&&&&&&&&&&&&jjjjjjj&&&&&&&&&&&&&&&&&&&&&&&jjjjjjjjjjjjjjjjjjjjjjjjjjjjjjjjjjjjjjjjjjjjjjjjjjjjjjjjjjjjjjjjjjjjjjjjjj",
"jj&&&&&&&&&&&&&&&&&&&&&&jjjjjjjj&&&&&&&&&&&&&&&&&&&&&&*jjjjjjjjjjjjjjjjjjjjjjjjjjjjjjjjjjjjjjjjjjjjjjjjjjjjjjjjjjjjjjjjjjjjjjjjj",
"jj&&&&&&&&&&&&&&&&&&&&&&&jjjjjjjj&&&&&&&&&&&&&&&&&&&&&&jjjjjjjjjjjjjjjjjjjjjjjjjjjjjjjjjjjjjjjjjjjjjjjjjjjjjjjjjjjjjjjjjjjjjjjjj",
"jjj%&&&&&&&&&&&&&&&&&&&&&,jjjjjjj&&&&&&&&&&&&&&&&&&&&&&&jjjjjjjjjjjjjjjjjjjjjjjjjjjjjjjjjjjjjjjjjjjjjjjjjjjjjjjjjjjjjjjjjjjjjjjj",
"jjjj&&&&&&&&&&&&&&&&&&&&&&jjjjjjjj&&&&&&&&&&&&&&&&&&&&&&&jjjjjjjjjjjjjjjjjjjjjjjjjjjjjjjjjjjjjjjjjjjjjjjjjjjjjjjjjjjjjjjjjjjjjjj",
"jjjj+&&&&&&&&&&&&&&&&&&&&&&jjjjjjjj&&&&&&&&&&&&&&&&&&&&&&jjjjjjjjjjjjjjjjjjjjjjjjjjjjjjjjjjjjjjjjjjjjjjjjjjjjjjjjjjjjjjjjjjjjjjj",
"jjjjj%&&&&&&&&&&&&&&&&&&&&&$jjjjjjj&&&&&&&&&&&&&&&&&&&&&&&jjjjjjjjjjjjjjjjjjjjjjjjjjjjjjjjjjjjjjjjjjjjjjjjjjjjjjjjjjjjjjjjjjjjjj",
"jjjjjj&&&&&&&&&&&&&&&&&&&&&&jjjjjjjj@&&&&&&&&&&&&&&&&&&&&&%jjjjjjjjjjjjjjjjjjjjjjjjjjjjjjjjjjjjjjjjjjjjjjjjjjjjjjjjjjjjjjjjjjjjj",
"jjjjjj&&&&&&&&&&&&&&&&&&&&&&&jjjjjjjj&&&&&&&&&&&&&&&&&&&&&&jjjjjjjjjjjjjjjjjjjjjjjjjjjjjjjjjjjjjjjjjjjjjjjjjjjjjjjjjjjjjjjjjjjjj",
"jjjjjjj&&&&&&&&&&&&&&&&&&&&&&=jjjjjjj%&&&&&&&&&&&&&&&&&&&&&@jjjjjjjjjjjjjjjjjjjjjjjjjjjjjjjjjjjjjjjjjjjjjjjjjjjjjjjjjjjjjjjjjjjj",
"jjjjjjjj&&&&&&&&&&&&&&&&&&&&&&jjjjjjjj&&&&&&&&&&&&&&&&&&&&&&=jjjjjjjjjjjjjjjjjjjjjjjjjjjjjjjjjjjjjjjjjjjjjjjjjjjjjjjjjjjjjjjjjjj",
"jjjjjjjj.&&&&&&&&&&&&&&&&&&&&&&jjjjjjjj&&&&&&&&&&&&&&&&&&&&&&jjjjjjjjjjjjjjjjjjjjjjjjjjjjjjjjjjjjjjjjjjjjjjjjjjjjjjjjjjjjjjjjjjj",
"jjjjjjjjj&&&&&&&&&&&&&&&&&&&&&&@jjjjjjj&&&&&&&&&&&&&&&&&&&&&&&jjjjjjjjjjjjjjjjjjjjjjjjjjjjjjjjjjjjjjjjjjjjjjjjjjjjjjjjjjjjjjjjjj",
"jjjjjjjjjj&&&&&&&&&&&&&&&&&&&&&&jjjjjjjj&&&&&&&&&&&&&&&&&&&&&&.jjjjjjjjjjjjjjjjjjjjjjjjjjjjjjjjjjjjjjjjjjjjjjjjjjjjjjjjjjjjjjjjj",
"jjjjjjjjjj&&&&&&&&&&&&&&&&&&&&&&&jjjjjjjj&&&&&&&&&&&&&&&&&&&&&&jjjjjjjjjjjjjjjjjjjjjjjjjjjjjjjjjjjjjjjjjjjjjjjjjjjjjjjjjjjjjjjjj",
"jjjjjjjjjjj*&&&&&&&&&&&&&&&&&&&&&&jjjjjjj*&&&&&&&&&&&&&&&&&&&&&&jjjjjjjjjjjjjjjjjjjjjjjjjjjjjjjjjjjjjjjjjjjjjjjjjjjjjjjjjjjjjjjj",
"jjjjjjjjjjjj&&&&&&&&&&&&&&&&&&&&&&jjjjjjjj&&&&&&&&&&&&&&&&&&&&&&&jjjjjjjjjjjjjjjjjjjjjjjjjjjjjjjjjjjjjjjjjjjjjjjjjjjjjjjjjjjjjjj",
"jjjjjjjjjjjj<&&&&&&&&&&&&&&&&&&&&&&jjjjjjjj&&&&&&&&&&&&&&&&&&&&&&jjjjjjjjjjjjjjjjjjjjjjjjjjjjjjjjjjjjjjjjjjjjjjjjjjjjjjjjjjjjjjj",
"jjjjjjjjjjjjj&&&&&&&&&&&&&&&&&&&&&&&jjjjjjj.&&&&&&&&&&&&&&&&&&&&&&jjjjjjjjjjjjjjjjjjjjjjjjjjjjjjjjjjjjjjjjjjjjjjjjjjjjjjjjjjjjjj",
"jjjjjjjjjjjjjj&&&&&&&&&&&&&&&&&&&&&&jjjjjjjj$&&&&&&&&&&&&&&&&&&&&&%jjjjjjjjjjjjjjjjjjjjjjjjjjjjjjjjjjjjjjjjjjjjjjjjjjjjjjjjjjjjj",
"jjjjjjjjjjjjjj&&&&&&&&&&&&&&&&&&&&&&&jjjjjjjj&&&&&&&&&&&&&&&&&&&&&&jjjjjjjjjjjjjjjjjjjjjjjjjjjjjjjjjjjjjjjjjjjjjjjjjjjjjjjjjjjjj",
"jjjjjjjjjjjjjjj&&&&&&&&&&&&&&&&&&&&&&&jjjjjjj2&&&&&&&&&&&&&&&&&&&&&,jjjjjjjjjjjjjjjjjjjjjjjjjjjjjjjjjjjjjjjjjjjjjjjjjjjjjjjjjjjj",
"jjjjjjjjjjjjjjjj&&&&&&&&&&&&&&&&&&&&&&jjjjjjjj%&&&&&&&&&&&&&&&&&&&&&,jjjjjjjjjjjjjjjjjjjjjjjjjjjjjjjjjjjjjjjjjjjjjjjjjjjjjjjjjjj",
"jjjjjjjjjjjjjjjj-&&&&&&&&&&&&&&&&&&&&&&jjjjjjjj&&&&&&&&&&&&&&&&&&&&&&jjjjjjjjjjjjjjjjjjjjjjjjjjjjjjjjjjjjjjjjjjjjjjjjjjjjjjjjjjj",
"jjjjjjjjjjjjjjjjj<&&&&&&&&&&&&&&&&&&&&&&jjjjjjj&&&&&&&&&&&&&&&&&&&&&&&jjjjjjjjjjjjjjjjjjjjjjjjjjjjjjjjjjjjjjjjjjjjjjjjjjjjjjjjjj",
"jjjjjjjjjjjjjjjjjj&&&&&&&&&&&&&&&&&&&&&&jjjjjjjj&&&&&&&&&&&&&&&&&&&&&&=jjjjjjjj=================================================",
"jjjjjjjjjjjjjjjjjjO&&&&&&&&&&&&&&&&&&&&&&jjjjjjjj&&&&&&&&&&&&&&&&&&&&&&jjjjjjjj&&&&&&&&&&&&&&&&&&&&&&&&&&&&&&&&&&&&&&&&&&&&&&&&&",
"jjjjjjjjjjjjjjjjjjj&&&&&&&&&&&&&&&&&&&&&& jjjjjjj@&&&&&&&&&&&&&&&&&&&&&&jjjjjjjj&&&&&&&&&&&&&&&&&&&&&&&&&&&&&&&&&&&&&&&&&&&&&&&&",
"jjjjjjjjjjjjjjjjjjjj&&&&&&&&&&&&&&&&&&&&&&jjjjjjjj&&&&&&&&&&&&&&&&&&&&&&.jjjjjjj*&&&&&&&&&&&&&&&&&&&&&&&&&&&&&&&&&&&&&&&&&&&&&&&",
"jjjjjjjjjjjjjjjjjjjj+&&&&&&&&&&&&&&&&&&&&&&jjjjjjjj&&&&&&&&&&&&&&&&&&&&&&jjjjjjjj&&&&&&&&&&&&&&&&&&&&&&&&&&&&&&&&&&&&&&&&&&&&&&&",
"jjjjjjjjjjjjjjjjjjjjj&&&&&&&&&&&&&&&&&&&&&&&jjjjjjj.&&&&&&&&&&&&&&&&&&&&&&jjjjjjjj&&&&&&&&&&&&&&&&&&&&&&&&&&&&&&&&&&&&&&&&&&&&&&",
"jjjjjjjjjjjjjjjjjjjjjj&&&&&&&&&&&&&&&&&&&&&&jjjjjjjj*&&&&&&&&&&&&&&&&&&&&&&jjjjjjj&&&&&&&&&&&&&&&&&&&&&&&&&&&&&&&&&&&&&&&&&&&&&&",
"jjjjjjjjjjjjjjjjjjjjjj=&&&&&&&&&&&&&&&&&&&&&&jjjjjjjj&&&&&&&&&&&&&&&&&&&&&&jjjjjjjj&&&&&&&&&&&&&&&&&&&&&&&&&&&&&&&&&&&&&&&&&&&&&",
"jjjjjjjjjjjjjjjjjjjjjjj&&&&&&&&&&&&&&&&&&&&&&,jjjjjjj<&&&&&&&&&&&&&&&&&&&&&&jjjjjjjj&&&&&&&&&&&&&&&&&&&&&&&&&&&&&&&&&&&&&&&&&&&&",
"jjjjjjjjjjjjjjjjjjjjjjjj&&&&&&&&&&&&&&&&&&&&&&jjjjjjjj&&&&&&&&&&&&&&&&&&&&&&&jjjjjjj&&&&&&&&&&&&&&&&&&&&&&&&&&&&&&&&&&&&&&&&&&&&",
"jjjjjjjjjjjjjjjjjjjjjjjj*&&&&&&&&&&&&&&&&&&&&&&jjjjjjjj&&&&&&&&&&&&&&&&&&&&&&jjjjjjjj%&&&&&&&&&&&&&&&&&&&&&&&&&&&&&&&&&&&&&&&&&&",
"jjjjjjjjjjjjjjjjjjjjjjjjj&&&&&&&&&&&&&&&&&&&&&&*jjjjjjj%&&&&&&&&&&&&&&&&&&&&&&jjjjjjjj&&&&&&&&&&&&&&&&&&&&&&&&&&&&&&&&&&&&&&&&&&",
"jjjjjjjjjjjjjjjjjjjjjjjjjj&&&&&&&&&&&&&&&&&&&&&&jjjjjjjj&&&&&&&&&&&&&&&&&&&&&&@jjjjjjj&&&&&&&&&&&&&&&&&&&&&&&&&&&&&&&&&&&&&&&&&&",
"jjjjjjjjjjjjjjjjjjjjjjjjjj,&&&&&&&&&&&&&&&&&&&&&&jjjjjjjj&&&&&&&&&&&&&&&&&&&&&&jjjjjjjj%&&&&&&&&&&&&&&&&&&&&&&&&&&&&&&&&&&&&&&&&",
"jjjjjjjjjjjjjjjjjjjjjjjjjjj&&&&&&&&&&&&&&&&&&&&&&&jjjjjjj&&&&&&&&&&&&&&&&&&&&&&&jjjjjjjj&&&&&&&&&&&&&&&&&&&&&&&&&&&&&&&&&&&&&&&&",
"jjjjjjjjjjjjjjjjjjjjjjjjjjjj&&&&&&&&&&&&&&&&&&&&&&>jjjjjjj<&&&&&&&&&&&&&&&&&&&&&&jjjjjjjjjjjjjjjjjjjjjjjjjjjjjjjjjjjjjjjjjjjjjjj",
"jjjjjjjjjjjjjjjjjjjjjjjjjjjjO&&&&&&&&&&&&&&&&&&&&&&jjjjjjjj&&&&&&&&&&&&&&&&&&&&&&jjjjjjjjjjjjjjjjjjjjjjjjjjjjjjjjjjjjjjjjjjjjjjj",
"jjjjjjjjjjjjjjjjjjjjjjjjjjjjjX&&&&&&&&&&&&&&&&&&&&&=jjjjjjjO&&&&&&&&&&&&&&&&&&&&&&jjjjjjjjjjjjjjjjjjjjjjjjjjjjjjjjjjjjjjjjjjjjjj",
"jjjjjjjjjjjjjjjjjjjjjjjjjjjjjj&&&&&&&&&&&&&&&&&&&&&&&jjjjjjj=&&&&&&&&&&&&&&&&&&&&& jjjjjjjjjjjjjjjjjjjjjjjjjjjjjjjjjjjjjjjjjjjjj",
"jjjjjjjjjjjjjjjjjjjjjjjjjjjjjj&&&&&&&&&&&&&&&&&&&&&&@jjjjjjj&&&&&&&&&&&&&&&&&&&&&&&jjjjjjjjjjjjjjjjjjjjjjjjjjjjjjjjjjjjjjjjjjjjj",
"jjjjjjjjjjjjjjjjjjjjjjjjjjjjjO&&&&&&&&&&&&&&&&&&&&&&jjjjjjjj&&&&&&&&&&&&&&&&&&&&&&9tjjjjjjjjjjjjjjjjjjjjjjjjjjjjjjjjjjjjjjjjjjjj",
"jjjjjjjjjjjjjjjjjjjjjjjjjjjjj&&&&&&&&&&&&&&&&&&&&&&jjjjjjjj%&&&&&&&&&&&&&&&&&&&&&7rttjjjjjjjjjjjjjjjjjjjjjjjjjjjjjjjjjjjjjjjjjjj",
"jjjjjjjjjjjjjjjjjjjjjjjjjjjj<&&&&&&&&&&&&&&&&&&&&&&jjjjjjj&&&&&&&&&&&&&&&&&&&&&&ostttjjjjjjjjjjjjjjjjjjjjjjjjjjjjjjjjjjjjjjjjjjj",
"jjjjjjjjjjjjjjjjjjjjjjjjjjj&&&&&&&&&&&&&&&&&&&&&&&jjjjjjjj&&&&&&&&&&&&&&&&&&&&&&qtttttjjjjjjjj&&&&&&&&&&&&&&&&&&&&&&&&&&&&&&&&&&",
"jjjjjjjjjjjjjjjjjjjjjjjjjjj&&&&&&&&&&&&&&&&&&&&&&jjjjjjjj%&&&&&&&&&&&&&&&&&&&&&6rtttttpjjjjjjj#&&&&&&&&&&&&&&&&&&&&&&&&&&&&&&&&&",
"jjjjjjjjjjjjjjjjjjjjjjjjjj&&&&&&&&&&&&&&&&&&&&&&&jjjjjjj&&&&&&&&&&&&&&&&&&&&&&Odtttttttjjjjjjjj&&&&&&&&&&&&&&&&&&&&&&&&&&&&&&&&&",
"jjjjjjjjjjjjjjjjjjjjjjjjj%&&&&&&&&&&&&&&&&&&&&&&jjjjjjjj&&&&&&&&&&&&&&&&&&&&&&0tttttttttjjjjjjjj&&&&&&&&&&&&&&&&&&&&&&&&&&&&&&&&",
"jjjjjjjjjjjjjjjjjjjjjjjjj&&&&&&&&&&&&&&&&&&&&&&jjjjjjjj&&&&&&&&&&&&&&&&&&&&&&5rttttttttttjjjjjjj&&&&&&&&&&&&&&&&&&&&&&&&&&&&&&&&",
"jjjjjjjjjjjjjjjjjjjjjjjj&&&&&&&&&&&&&&&&&&&&&&,jjjjjjj&&&&&&&&&&&&&&&&&&&&&&Ogtttttttttttjjjjjjjj.&&&&&&&&&&&&&&&&&&&&&&&&&&&&&&",
"jjjjjjjjjjjjjjjjjjjjjjj<&&&&&&&&&&&&&&&&&&&&&&jjjjjjjj&&&&&&&&&&&&&&&&&&&&&&wtttttttttttttjjjjjjjj&&&&&&&&&&&&&&&&&&&&&&&&&&&&&&",
"jjjjjjjjjjjjjjjjjjjjjjj&&&&&&&&&&&&&&&&&&&&&&jjjjjjjj&&&&&&&&&&&&&&&&&&&&&&4tttttttttttttttjjjjjjj&&&&&&&&&&&&&&&&&&&&&&&&&&&&&&",
"jjjjjjjjjjjjjjjjjjjjjj*&&&&&&&&&&&&&&&&&&&&&&jjjjjjj*&&&&&&&&&&&&&&&&&&&&&Oftttttttttttttttpjjjjjjj<&&&&&&&&&&&&&&&&&&&&&&&&&&&&",
"jjjjjjjjjjjjjjjjjjjjj.&&&&&&&&&&&&&&&&&&&&&&jjjjjjjj&&&&&&&&&&&&&&&&&&&&&&8tttttttttttttttttjjjjjjjj&&&&&&&&&&&&&&&&&&&&&&&&&&&&",
"jjjjjjjjjjjjjjjjjjjjj&&&&&&&&&&&&&&&&&&&&&&jjjjjjjj&&&&&&&&&&&&&&&&&&&&&&3tttttttttttttttttttjjjjjjj,&&&&&&&&&&&&&&&&&&&&&&&&&&&",
"jjjjjjjjjjjjjjjjjjjj&&&&&&&&&&&&&&&&&&&&&&&jjjjjjj%&&&&&&&&&&&&&&&&&&&&&;ftttttttttttttttttttujjjjjjj&&&&&&&&&&&&&&&&&&&&&&&&&&&",
"jjjjjjjjjjjjjjjjjjj@&&&&&&&&&&&&&&&&&&&&&&jjjjjjjj&&&&&&&&&&&&&&&&&&&&&&htttttttttttttttttttttjjjjjjjj&&&&&&&&&&&&&&&&&&&&&&&&&&",
"jjjjjjjjjjjjjjjjjjj&&&&&&&&&&&&&&&&&&&&&&jjjjjjjj@&&&&&&&&&&&&&&&&&&&&&:ettttttttttttttttttttttjjjjjjj=&&&&&&&&&&&&&&&&&&&&&&&&&",
"jjjjjjjjjjjjjjjjjj&&&&&&&&&&&&&&&&&&&&&&=jjjjjjj1&&&&&&&&&&&&&&&&&&&&&@jjtttttttttttttttttttttttjjjjjjj&&&&&&&&&&&&&&&&&&&&&&&&&",
"jjjjjjjjjjjjjjjjj&&&&&&&&&&&&&&&&&&&&&&&jjjjjjjj&&&&&&&&&&&&&&&&&&&&&&jjjrttttttttttttttttttttttjjjjjjjjjjjjjjjjjjjjjjjjjjjjjjjj",
"jjjjjjjjjjjjjjjjj&&&&&&&&&&&&&&&&&&&&&&jjjjjjjj@&&&&&&&&&&&&&&&&&&&&&%jjjjttttttttttttttttttttttejjjjjjjjjjjjjjjjjjjjjjjjjjjjjjj",
"jjjjjjjjjjjjjjjj%&&&&&&&&&&&&&&&&&&&&&,jjjjjjj&&&&&&&&&&&&&&&&&&&&&&&jjjjjjttttttttttttttttttttttajjjjjjjjjjjjjjjjjjjjjjjjjjjjjj",
"jjjjjjjjjjjjjjj&&&&&&&&&&&&&&&&&&&&&&,jjjjjjjj&&&&&&&&&&&&&&&&&&&&&&jjjjjjjpttttttttttttttttttttttjjjjjjjjjjjjjjjjjjjjjjjjjjjjjj",
"jjjjjjjjjjjjjjj&&&&&&&&&&&&&&&&&&&&&&jjjjjjjj&&&&&&&&&&&&&&&&&&&&&&*jjjjjjjjtttttttttttttttttttttttjjjjjjjjjjjjjjjjjjjjjjjjjjjjj",
"jjjjjjjjjjjjjj&&&&&&&&&&&&&&&&&&&&&&%jjjjjjj&&&&&&&&&&&&&&&&&&&&&&&jjjjjjjjjjttttttttttttttttttttttijjjjjjjjjjjjjjjjjjjjjjjjjjjj",
"jjjjjjjjjjjjj.&&&&&&&&&&&&&&&&&&&&&&jjjjjjjj&&&&&&&&&&&&&&&&&&&&&&jjjjjjjjjjjjttttttttttttttttttttttjjjjjjjjjjjjjjjjjjjjjjjjjjjj",
"jjjjjjjjjjjjj&&&&&&&&&&&&&&&&&&&&&&jjjjjjjj&&&&&&&&&&&&&&&&&&&&&&&jjjjjjjjjjjjttttttttttttttttttttttujjjjjjjjjjjjjjjjjjjjjjjjjjj",
"jjjjjjjjjjjj&&&&&&&&&&&&&&&&&&&&&&&jjjjjjj&&&&&&&&&&&&&&&&&&&&&&&jjjjjjjjjjjjjjtttttttttttttttttttttttjjjjjjjjjjjjjjjjjjjjjjjjjj",
"jjjjjjjjjjj*&&&&&&&&&&&&&&&&&&&&&&jjjjjjjj&&&&&&&&&&&&&&&&&&&&&&jjjjjjjjjjjjjjjjttttttttttttttttttttttjjjjjjjjjjjjjjjjjjjjjjjjjj",
"jjjjjjjjjjj&&&&&&&&&&&&&&&&&&&&&&jjjjjjjj&&&&&&&&&&&&&&&&&&&&&&&jjjjjjjjjjjjjjjjpttttttttttttttttttttttjjjjjjjjjjjjjjjjjjjjjjjjj",
"jjjjjjjjjj&&&&&&&&&&&&&&&&&&&&&&&jjjjjjj,&&&&&&&&&&&&&&&&&&&&&%jjjjjjjjjjjjjjjjjjttttttttttttttttttttttujjjjjjjjjjjjjjjjjjjjjjjj",
"jjjjjjjjj%&&&&&&&&&&&&&&&&&&&&&&jjjjjjjj&&&&&&&&&&&&&&&&&&&&&&jjjjjjjjjjjjjjjjjjjjttttttttttttttttttttttjjjjjjjjjjjjjjjjjjjjjjjj",
"jjjjjjjjj&&&&&&&&&&&&&&&&&&&&&&jjjjjjjj&&&&&&&&&&&&&&&&&&&&&&&jjjjjjjjjjjjjjjjjjjjrttttttttttttttttttttttjjjjjjjjjjjjjjjjjjjjjjj",
"jjjjjjjj@&&&&&&&&&&&&&&&&&&&&&<jjjjjjj=&&&&&&&&&&&&&&&&&&&&&%jjjjjjjjjjjjjjjjjjjjjjttttttttttttttttttttttyjjjjjjjjjjjjjjjjjjjjjj",
"jjjjjjj%&&&&&&&&&&&&&&&&&&&&&@jjjjjjjj&&&&&&&&&&&&&&&&&&&&&&jjjjjjjjjjjjjjjjjjjjjjjjttttttttttttttttttttttjjjjjjjjjjjjjjjjjjjjjj",
"jjjjjjj&&&&&&&&&&&&&&&&&&&&&&jjjjjjjj&&&&&&&&&&&&&&&&&&&&&&*jjjjjjjjjjjjjjjjjjjjjjjjtttttttttttttttttttttttjjjjjjjjjjjjjjjjjjjjj",
"jjjjjj@&&&&&&&&&&&&&&&&&&&&&%jjjjjjj=&&&&&&&&&&&&&&&&&&&&&&jjjjjjjjjjjjjjjjjjjjjjjjjjttttttttttttttttttttttpjjjjjjjjjjjjjjjjjjjj",
"jjjjj&&&&&&&&&&&&&&&&&&&&&&&jjjjjjjj&&&&&&&&&&&&&&&&&&&&&&jjjjjjjjjjjjjjjjjjjjjjjjjjjjttttttttttttttttttttttjjjjjjjjjjjjjjjjjjjj",
"jjjjj&&&&&&&&&&&&&&&&&&&&&&jjjjjjjj&&&&&&&&&&&&&&&&&&&&&&.jjjjjjjjjjjjjjjjjjjjjjjjjjjjttttttttttttttttttttttpjjjjjjjjjjjjjjjjjjj",
"jjjj&&&&&&&&&&&&&&&&&&&&&&*jjjjjjj&&&&&&&&&&&&&&&&&&&&&&*jjjjjjjjjjjjjjjjjjjjjjjjjjjjjjttttttttttttttttttttttujjjjjjjjjjjjjjjjjj",
"jjj@&&&&&&&&&&&&&&&&&&&&&&jjjjjjjj&&&&&&&&&&&&&&&&&&&&&&jjjjjjjjjjjjjjjjjjjjjjjjjjjjjjjjttttttttttttttttttttttjjjjjjjjjjjjjjjjjj",
"jjj&&&&&&&&&&&&&&&&&&&&&&jjjjjjjj&&&&&&&&&&&&&&&&&&&&&&<jjjjjjjjjjjjjjjjjjjjjjjjjjjjjjjjtttttttttttttttttttttttjjjjjjjjjjjjjjjjj",
"jj&&&&&&&&&&&&&&&&&&&&&&&jjjjjjj,&&&&&&&&&&&&&&&&&&&&&*jjjjjjjjjjjjjjjjjjjjjjjjjjjjjjjjjjttttttttttttttttttttttrjjjjjjjjjjjjjjjj",
"j&&&&&&&&&&&&&&&&&&&&&&&jjjjjjjj&&&&&&&&&&&&&&&&&&&&&&jjjjjjjjjjjjjjjjjjjjjjjjjjjjjjjjjjjjttttttttttttttttttttttjjjjjjjjjjjjjjjj",
"j&&&&&&&&&&&&&&&&&&&&&&jjjjjjjj&&&&&&&&&&&&&&&&&&&&&&#jjjjjjjjjjjjjjjjjjjjjjjjjjjjjjjjjjjjrttttttttttttttttttttttjjjjjjjjjjjjjjj",
"jjjjjjjjjjjjjjjjjjjjjjjjjjjjjjjjjjjjjjjjjjjjjjjjjjjjjjjjjjjjjjjjjjjjjjjjjjjjjjjjjjjjjjjjjjjjjjjjjjjjjjjjjjjjjjjjjjjjjjjjjjjjjjjj",
"jjjjjjjjjjjjjjjjjjjjjjjjjjjjjjjjjjjjjjjjjjjjjjjjjjjjjjjjjjjjjjjjjjjjjjjjjjjjjjjjjjjjjjjjjjjjjjjjjjjjjjjjjjjjjjjjjjjjjjjjjjjjjjjj",
"jjjjjjjjjjjjjjjjjjjjjjjjjjjjjjjjjjjjjjjjjjjjjjjjjjjjjjjjjjjjjjjjjjjjjjjjjjjjjjjjjjjjjjjjjjjjjjjjjjjjjjjjjjjjjjjjjjjjjjjjjjjjjjjj",
"jjjjjjjjjjjjjjjjjjjjjjjjjjjjjjjjjjjjjjjjjjjjjjjjjjjjjjjjjjjjjjjjjjjjjjjjjjjjjjjjjjjjjjjjjjjjjjjjjjjjjjjjjjjjjjjjjjjjjjjjjjjjjjjj",
"jjjjjjjjjjjjjjjjjjjjjjjjjjjjjjjjjjjjjjjjjjjjjjjjjjjjjjjjjjjjjjjjjjjjjjjjjjjjjjjjjjjjjjjjjjjjjjjjjjjjjjjjjjjjjjjjjjjjjjjjjjjjjjjj",
"jjjjjjjjjjjjjjjjjjjjjjjjjjjjjjjjjjjjjjjjjjjjjjjjjjjjjjjjjjjjjjjjjjjjjjjjjjjjjjjjjjjjjjjjjjjjjjjjjjjjjjjjjjjjjjjjjjjjjjjjjjjjjjjj",
"jjjjjjjjjjjjjjjjjjjjjjjjjjjjjjjjjjjjjjjjjjjjjjjjjjjjjjjjjjjjjjjjjjjjjjjjjjjjjjjjjjjjjjjjjjjjjjjjjjjjjjjjjjjjjjjjjjjjjjjjjjjjjjjj",
"jjjjjjjjjjjjjjjjjjjjjjjjjjjjjjjjjjjjjjjjjjjjjjjjjjjjjjjjjjjjjjjjjjjjjjjjjjjjjjjjjjjjjjjjjjjjjjjjjjjjjjjjjjjjjjjjjjjjjjjjjjjjjjjj",
"jjjjjjjjjjjjjjjjjjjjjjjjjjjjjjjjjjjjjjjjjjjjjjjjjjjjjjjjjjjjjjjjjjjjjjjjjjjjjjjjjjjjjjjjjjjjjjjjjjjjjjjjjjjjjjjjjjjjjjjjjjjjjjjj",
"jjjjjjjjjjjjjjjjjjjjjjjjjjjjjjjjjjjjjjjjjjjjjjjjjjjjjjjjjjjjjjjjjjjjjjjjjjjjjjjjjjjjjjjjjjjjjjjjjjjjjjjjjjjjjjjjjjjjjjjjjjjjjjjj",
"jjjjjjjjjjjjjjjjjjjjjjjjjjjjjjjjjjjjjjjjjjjjjjjjjjjjjjjjjjjjjjjjjjjjjjjjjjjjjjjjjjjjjjjjjjjjjjjjjjjjjjjjjjjjjjjjjjjjjjjjjjjjjjjj",
"jjjjjjjjjjjjjjjjjjjjjjjjjjjjjjjjjjjjjjjjjjjjjjjjjjjjjjjjjjjjjjjjjjjjjjjjjjjjjjjjjjjjjjjjjjjjjjjjjjjjjjjjjjjjjjjjjjjjjjjjjjjjjjjj",
"jjjjjjjjjjjjjjjjjjjjjjjjjjjjjjjjjjjjjjjjjjjjjjjjjjjjjjjjjjjjjjjjjjjjjjjjjjjjjjjjjjjjjjjjjjjjjjjjjjjjjjjjjjjjjjjjjjjjjjjjjjjjjjjj",
"jjjjjjjjjjjjjjjjjjjjjjjjjjjjjjjjjjjjjjjjjjjjjjjjjjjjjjjjjjjjjjjjjjjjjjjjjjjjjjjjjjjjjjjjjjjjjjjjjjjjjjjjjjjjjjjjjjjjjjjjjjjjjjjj",
"jjjjjjjjjjjjjjjjjjjjjjjjjjjjjjjjjjjjjjjjjjjjjjjjjjjjjjjjjjjjjjjjjjjjjjjjjjjjjjjjjjjjjjjjjjjjjjjjjjjjjjjjjjjjjjjjjjjjjjjjjjjjjjjj",
"jjjjjjjjjjjjjjjjjjjjjjjjjjjjjjjjjjjjjjjjjjjjjjjjjjjjjjjjjjjjjjjjjjjjjjjjjjjjjjjjjjjjjjjjjjjjjjjjjjjjjjjjjjjjjjjjjjjjjjjjjjjjjjjj",
"jjjjjjjjjjjjjjjjjjjjjjjjjjjjjjjjjjjjjjjjjjjjjjjjjjjjjjjjjjjjjjjjjjjjjjjjjjjjjjjjjjjjjjjjjjjjjjjjjjjjjjjjjjjjjjjjjjjjjjjjjjjjjjjj",
"jjjjjjjjjjjjjjjjjjjjjjjjjjjjjjjjjjjjjjjjjjjjjjjjjjjjjjjjjjjjjjjjjjjjjjjjjjjjjjjjjjjjjjjjjjjjjjjjjjjjjjjjjjjjjjjjjjjjjjjjjjjjjjjj",
"jjjjjjjjjjjjjjjjjjjjjjjjjjjjjjjjjjjjjjjjjjjjjjjjjjjjjjjjjjjjjjjjjjjjjjjjjjjjjjjjjjjjjjjjjjjjjjjjjjjjjjjjjjjjjjjjjjjjjjjjjjjjjjjj",
"jjjjjjjjjjjjjjjjjjjjjjjjjjjjjjjjjjjjjjjjjjjjjjjjjjjjjjjjjjjjjjjjjjjjjjjjjjjjjjjjjjjjjjjjjjjjjjjjjjjjjjjjjjjjjjjjjjjjjjjjjjjjjjjj"
};
